<?xml version="1.0" standalone="no"?>
<!DOCTYPE svg PUBLIC "-//W3C//DTD SVG 20010904//EN"
 "http://www.w3.org/TR/2001/REC-SVG-20010904/DTD/svg10.dtd">
<svg version="1.0" xmlns="http://www.w3.org/2000/svg"
 width="1024.000000pt" height="1024.000000pt" viewBox="0 0 1024.000000 1024.000000"
 preserveAspectRatio="xMidYMid meet">

<g transform="translate(0.000000,1024.000000) scale(0.100000,-0.100000)"
fill="#000000" stroke="none">
<path d="M4780 8589 c-1153 -113 -2158 -770 -2713 -1773 -178 -321 -315 -715
-376 -1081 -37 -223 -46 -335 -45 -610 0 -303 18 -479 75 -738 80 -366 241
-761 443 -1086 286 -458 712 -868 1209 -1160 281 -164 642 -303 992 -380 457
-101 1079 -99 1540 5 504 113 998 351 1410 681 210 167 469 442 642 678 278
382 483 856 577 1335 48 243 60 385 60 675 0 348 -25 560 -105 880 -237 942
-888 1757 -1757 2198 -378 192 -746 305 -1184 363 -145 19 -623 27 -768 13z
m720 -173 c563 -67 1119 -276 1542 -579 263 -189 551 -466 725 -697 407 -544
620 -1133 664 -1838 28 -456 -51 -945 -223 -1377 -167 -419 -398 -773 -713
-1091 -569 -574 -1263 -901 -2068 -975 -190 -17 -604 -6 -782 21 -623 94
-1154 325 -1630 706 -143 115 -378 350 -489 489 -620 779 -851 1758 -649 2755
87 432 288 890 548 1245 260 355 612 680 967 891 443 263 939 420 1463 464
145 12 488 4 645 -14z"/>
<path d="M5331 7564 c-304 -82 -472 -445 -342 -739 18 -42 19 -46 3 -41 -9 3
-80 23 -157 45 -77 22 -197 58 -267 80 -151 48 -228 58 -327 41 -150 -25 -329
-149 -408 -282 -45 -75 -312 -746 -329 -826 -28 -133 -11 -253 52 -372 74
-141 184 -219 399 -284 l109 -33 12 -59 c6 -33 24 -88 38 -124 l26 -65 -90
-245 c-50 -135 -97 -263 -105 -285 -11 -31 -100 -125 -382 -407 l-368 -368
-75 -21 c-160 -44 -330 -161 -330 -227 0 -33 30 -69 66 -78 18 -5 36 1 65 22
150 106 219 134 344 141 109 7 184 -10 304 -67 87 -42 227 -134 344 -227 l68
-54 -41 -46 c-27 -31 -40 -55 -40 -75 0 -40 40 -78 81 -78 27 0 48 15 133 98
197 192 379 282 566 282 142 0 247 -53 279 -140 18 -49 49 -68 93 -57 14 4
105 80 203 169 222 204 266 237 390 298 122 59 205 80 316 80 205 0 352 -78
600 -317 117 -113 142 -133 169 -133 38 0 80 39 80 74 0 13 -16 46 -36 71 -19
26 -32 50 -29 53 4 4 43 7 88 7 74 0 87 -3 137 -32 30 -18 82 -59 115 -92 49
-50 65 -61 92 -61 43 0 73 30 73 74 0 55 -95 163 -192 219 -107 62 -266 76
-372 32 l-59 -24 -83 69 c-46 37 -111 85 -144 106 -56 35 -60 39 -55 68 6 38
55 485 135 1230 33 307 61 560 62 561 2 2 26 14 54 28 90 45 154 144 154 237
0 83 -66 193 -131 220 l-31 13 8 91 c15 157 13 174 -24 207 -43 39 -90 39
-133 1 -29 -26 -32 -35 -46 -147 -8 -66 -16 -121 -17 -122 -1 -1 -130 -16
-286 -33 -157 -16 -302 -33 -322 -36 l-36 -5 -95 193 c-53 106 -114 226 -136
266 l-42 72 53 0 c118 0 238 53 337 146 297 280 183 776 -208 903 -77 25 -226
28 -310 5z m301 -176 c294 -137 293 -549 0 -686 -49 -23 -70 -27 -152 -27 -82
0 -103 4 -152 27 -76 35 -138 95 -179 170 -33 60 -34 68 -34 168 0 93 3 112
26 161 47 99 128 171 232 205 69 22 191 14 259 -18z m-1088 -646 l157 -48 -59
-46 c-70 -54 -121 -115 -157 -186 -44 -87 -309 -785 -366 -962 -29 -91 -54
-167 -55 -169 -5 -6 -177 50 -224 74 -66 34 -119 90 -154 164 -28 59 -31 76
-31 156 l1 90 143 360 c79 198 150 372 157 386 20 39 102 127 151 160 122 84
216 89 437 21z m594 -151 c54 -27 124 -91 163 -147 15 -22 88 -162 162 -310
74 -148 146 -279 159 -292 14 -12 40 -25 59 -28 19 -3 174 9 344 26 443 44
489 46 519 27 60 -40 51 -141 -16 -172 -31 -14 -950 -239 -1027 -251 -28 -4
-42 -1 -63 16 -15 11 -108 139 -208 283 -225 328 -249 359 -283 371 -36 13
-74 -1 -101 -37 -28 -38 -21 -53 111 -232 60 -82 116 -159 123 -171 12 -19 2
-48 -85 -264 -74 -183 -96 -247 -88 -259 5 -9 157 -104 337 -212 180 -108 332
-201 337 -206 4 -4 20 -105 34 -223 37 -307 85 -690 91 -726 5 -29 3 -32 -28
-38 -18 -3 -73 -26 -123 -50 -49 -24 -91 -44 -92 -43 -5 6 -92 319 -152 551
-45 173 -76 276 -88 288 -10 10 -194 97 -408 194 -215 97 -410 190 -434 207
-83 60 -144 177 -157 301 -6 59 -3 78 41 218 52 166 306 843 356 947 55 115
169 213 288 247 67 19 176 12 229 -15z m135 -1192 c47 -66 67 -85 110 -105 29
-13 69 -24 90 -24 20 0 217 45 437 100 220 55 405 100 411 100 6 0 8 -11 5
-27 -3 -16 -42 -388 -86 -828 -45 -440 -83 -810 -85 -821 -4 -20 -9 -21 -42
-13 -21 5 -84 9 -140 9 -57 0 -103 2 -103 5 0 2 -30 235 -66 517 -50 390 -69
517 -82 531 -8 10 -152 99 -318 199 l-301 181 34 86 c19 47 41 105 50 129 8
23 18 42 21 41 4 0 33 -36 65 -80z m-808 -739 c66 -30 123 -56 127 -59 3 -3
-44 -124 -105 -267 l-112 -262 -155 -137 c-85 -76 -235 -207 -333 -292 l-178
-155 -62 28 c-34 15 -99 39 -144 54 l-82 27 320 318 c176 175 324 326 329 335
5 9 47 122 94 251 46 128 87 241 91 251 6 14 11 13 48 -11 23 -16 96 -52 162
-81z m510 -233 l120 -55 76 -283 c41 -156 93 -340 113 -409 21 -69 39 -130 40
-135 0 -6 -58 -66 -131 -133 l-132 -123 -48 37 c-160 123 -407 139 -637 42
-57 -25 -187 -103 -251 -152 -14 -11 -268 171 -259 185 3 5 123 111 267 237
420 365 367 302 485 579 56 131 108 255 117 275 l15 37 52 -24 c29 -13 107
-48 173 -78z"/>
</g>
</svg>
